<svg xmlns="http://www.w3.org/2000/svg" xmlns:xlink="http://www.w3.org/1999/xlink" version="1.1" width="1000" height="1000" viewBox="0 0 1000 1000" xml:space="preserve">
<desc>Created with Fabric.js 3.5.0</desc>
<defs>
</defs>
<rect x="0" y="0" width="100%" height="100%" fill="#ffffff"/>
<g transform="matrix(3.6673 0 0 3.8574 498.7528 501.2472)" id="30614">
<g style="" vector-effect="non-scaling-stroke">
		<g transform="matrix(0.1333 0 0 -0.1333 -0.0341 -0.032)">
<path style="stroke: none; stroke-width: 1; stroke-dasharray: none; stroke-linecap: butt; stroke-dashoffset: 0; stroke-linejoin: miter; stroke-miterlimit: 4; is-custom-font: none; font-file-url: none; fill: rgb(255,138,51); fill-opacity: 0.96; fill-rule: nonzero; opacity: 1;" transform=" translate(-1020, -960)" d="M 0 960 l 0 -960 l 1020 0 l 1020 0 l 0 960 l 0 960 l -1020 0 l -1020 0 l 0 -960 z m 1586 190 c -6 -39 -6 -40 24 -40 c 32 0 34 -6 24 -59 c -5 -26 -11 -31 -35 -31 c -31 0 -36 -11 -41 -85 c -3 -40 -3 -40 31 -37 c 31 3 33 2 28 -20 c -4 -13 -7 -28 -7 -34 c 0 -16 -46 -34 -87 -34 c -69 0 -84 39 -64 163 c 6 36 5 47 -6 47 c -9 0 -13 13 -13 41 c 0 32 4 42 19 46 c 11 3 22 15 25 28 c 4 14 20 29 43 38 c 60 25 66 23 59 -23 z m -195 -59 c 33 -33 34 -40 17 -173 l -12 -98 l -47 0 c -26 0 -49 5 -51 11 c -2 6 -14 5 -33 -5 c -42 -22 -69 -20 -101 8 c -40 34 -39 86 4 128 c 27 28 39 33 97 36 c 68 5 75 10 49 36 c -19 19 -27 19 -79 1 c -21 -8 -41 -12 -43 -10 c -2 2 -5 18 -5 36 c -2 28 2 33 33 45 c 19 7 59 13 88 13 c 46 1 57 -3 83 -28 z m 476 4 c 79 -52 61 -207 -31 -264 c -40 -25 -105 -27 -146 -6 c -38 19 -65 90 -55 142 c 12 68 64 131 120 146 c 31 9 84 0 112 -18 z m -1467 -19 c 0 -21 -16 -45 -62 -95 l -62 -66 l 51 -3 l 52 -3 l -6 -37 c -3 -20 -8 -40 -12 -44 c -3 -4 -58 -8 -121 -9 l -115 -2 l -3 28 c -3 21 9 40 60 93 l 63 67 l -45 5 l -45 5 l 4 40 c 1 22 4 42 6 45 c 2 3 55 5 119 5 l 116 0 l 0 -29 z m 236 0 c 31 -31 34 -39 34 -91 c 0 -101 -63 -175 -149 -175 c -82 0 -127 48 -125 135 c 2 94 69 165 157 165 c 42 0 54 -5 83 -34 z m 174 0 l 0 -34 l 35 35 c 29 29 40 34 72 31 c 32 -3 39 -7 47 -33 l 9 -30 l 33 33 c 28 28 39 33 71 30 c 59 -5 65 -29 42 -168 c -10 -63 -19 -116 -19 -117 c 0 -2 -23 -3 -51 -3 l -52 0 l 6 53 c 4 28 10 73 13 100 c 6 42 5 47 -10 41 c -26 -10 -47 -59 -54 -127 l -7 -62 l -59 -3 c -48 -3 -58 0 -53 11 c 10 26 30 178 24 183 c -20 20 -61 -63 -72 -143 l -7 -53 l -49 0 c -57 0 -55 -5 -39 117 c 6 43 13 97 16 120 c 4 36 9 42 32 46 c 69 10 72 9 72 -27 z" stroke-linecap="round"/>
</g>
		<g transform="matrix(0.1333 0 0 -0.1333 33.3927 6.3276)">
<path style="stroke: none; stroke-width: 1; stroke-dasharray: none; stroke-linecap: butt; stroke-dashoffset: 0; stroke-linejoin: miter; stroke-miterlimit: 4; is-custom-font: none; font-file-url: none; fill: rgb(255,138,51); fill-opacity: 0.96; fill-rule: nonzero; opacity: 1;" transform=" translate(-1270.4579, -912.533)" d="M 1238 939 c -21 -12 -23 -42 -4 -58 c 19 -16 60 4 75 36 c 6 13 11 26 11 28 c 0 9 -65 4 -82 -6 z" stroke-linecap="round"/>
</g>
		<g transform="matrix(0.1333 0 0 -0.1333 100.452 -0.2371)">
<path style="stroke: none; stroke-width: 1; stroke-dasharray: none; stroke-linecap: butt; stroke-dashoffset: 0; stroke-linejoin: miter; stroke-miterlimit: 4; is-custom-font: none; font-file-url: none; fill: rgb(255,138,51); fill-opacity: 0.96; fill-rule: nonzero; opacity: 1;" transform=" translate(-1773.3981, -961.7617)" d="M 1755 1006 c -10 -15 -15 -40 -13 -68 c 2 -35 7 -43 23 -43 c 27 0 50 70 36 108 c -13 33 -26 34 -46 3 z" stroke-linecap="round"/>
</g>
		<g transform="matrix(0.1333 0 0 -0.1333 -64.7984 0.1404)">
<path style="stroke: none; stroke-width: 1; stroke-dasharray: none; stroke-linecap: butt; stroke-dashoffset: 0; stroke-linejoin: miter; stroke-miterlimit: 4; is-custom-font: none; font-file-url: none; fill: rgb(255,138,51); fill-opacity: 0.96; fill-rule: nonzero; opacity: 1;" transform=" translate(-534.0213, -958.9298)" d="M 516 1008 c -22 -31 -21 -107 0 -115 c 21 -8 42 19 50 65 c 11 58 -22 91 -50 50 z" stroke-linecap="round"/>
</g>
</g>
</g>
</svg>